<svg xmlns="http://www.w3.org/2000/svg" viewBox="0 0 64 64" role="img" aria-labelledby="title desc">
  <title id="title">Simple Honeypot</title>
  <desc id="desc">A blue shield with a golden honey pot</desc>
  <path fill="#102a43" d="M32 3 56 12v17c0 15.4-9.6 26.3-24 32C17.6 55.3 8 44.4 8 29V12L32 3Z"/>
  <path fill="#fff" d="M32 10 49 16v13c0 11.5-6.5 20.2-17 25-10.5-4.8-17-13.5-17-25V16l17-6Z"/>
  <path fill="#efa91f" d="M22 29h20v13H22z"/>
  <path fill="#d78f15" d="M20 29h24v5H20z"/>
  <path fill="#f4b82f" d="M23 22h18l-2 7H25l-2-7Z"/>
  <path fill="#102a43" d="M28 18h8v5h-8zM24 18h16v3H24z"/>
  <circle cx="32" cy="16" r="3" fill="#102a43"/>
  <path fill="#f4b82f" d="M22 35h20v7H22z"/>
  <path fill="#d78f15" d="M24 42h16c-1 3-3.5 5-8 5s-7-2-8-5Z"/>
</svg>
